<svg xmlns="http://www.w3.org/2000/svg" width="886.548" height="489.3" viewBox="0 0 886.548 489.3">
  <g id="Group_6" data-name="Group 6" transform="translate(-421 2283)">
    <rect id="Rectangle_1" data-name="Rectangle 1" width="703.576" height="450.601" transform="translate(603.972 -2282.601)" fill="#e6e6e6"/>
    <rect id="Rectangle_2" data-name="Rectangle 2" width="254" height="261" transform="translate(666.187 -2222.093)" fill="#fff"/>
    <rect id="Rectangle_3" data-name="Rectangle 3" width="254" height="317" transform="translate(1010.187 -2214.031)" fill="#fff"/>
    <ellipse id="Ellipse_3" data-name="Ellipse 3" cx="104.425" cy="5" rx="104.425" ry="5" transform="translate(421 -1817.093)" fill="#e6e6e6"/>
    <rect id="Rectangle_4" data-name="Rectangle 4" width="703.576" height="29.89" transform="translate(603.672 -2283)" fill="#6c63ff"/>
    <circle id="Ellipse_4" data-name="Ellipse 4" cx="5.54" cy="5.54" r="5.54" transform="translate(620.344 -2273.258)" fill="#e6e6e6"/>
    <circle id="Ellipse_5" data-name="Ellipse 5" cx="5.54" cy="5.54" r="5.54" transform="translate(641.373 -2273.258)" fill="#e6e6e6"/>
    <circle id="Ellipse_6" data-name="Ellipse 6" cx="5.54" cy="5.54" r="5.54" transform="translate(662.401 -2273.258)" fill="#e6e6e6"/>
    <path id="Path_1" data-name="Path 1" d="M947.036,356.349H945.5V314.2a24.4,24.4,0,0,0-24.4-24.4H831.8a24.4,24.4,0,0,0-24.4,24.4V545.439a24.4,24.4,0,0,0,24.4,24.4h89.3a24.4,24.4,0,0,0,24.4-24.4V386.352h1.539Z" transform="translate(266.151 -2488.35)" fill="#3f3d56"/>
    <path id="Path_2" data-name="Path 2" d="M921.086,296.15H909.429a8.655,8.655,0,0,1-8.014,11.924H850.256a8.655,8.655,0,0,1-8.014-11.925H831.354a18.218,18.218,0,0,0-18.218,18.218v230.9a18.218,18.218,0,0,0,18.218,18.218h89.732A18.218,18.218,0,0,0,939.3,545.27v-230.9a18.218,18.218,0,0,0-18.218-18.218Z" transform="translate(266.151 -2488.35)" fill="#fff"/>
    <rect id="Rectangle_5" data-name="Rectangle 5" width="176.544" height="8.053" transform="translate(705.09 -2057.224)" fill="#e6e6e6"/>
    <rect id="Rectangle_6" data-name="Rectangle 6" width="176.544" height="8.053" transform="translate(705.09 -2031.224)" fill="#6c63ff"/>
    <rect id="Rectangle_7" data-name="Rectangle 7" width="176.544" height="8.053" transform="translate(705.09 -2005.224)" fill="#e6e6e6"/>
    <rect id="Rectangle_8" data-name="Rectangle 8" width="103.064" height="8.053" transform="translate(1091.839 -2039.654)" fill="#e6e6e6"/>
    <rect id="Rectangle_9" data-name="Rectangle 9" width="103.064" height="8.053" transform="translate(1091.839 -2014.654)" fill="#e6e6e6"/>
    <rect id="Rectangle_10" data-name="Rectangle 10" width="103.064" height="8.053" transform="translate(1091.839 -1989.654)" fill="#e6e6e6"/>
    <rect id="Rectangle_11" data-name="Rectangle 11" width="17.177" height="17.177" transform="translate(1205.679 -1881.786) rotate(90)" fill="#3f3d56"/>
    <rect id="Rectangle_12" data-name="Rectangle 12" width="17.177" height="17.177" transform="translate(1178.005 -1881.787) rotate(90)" fill="#6c63ff"/>
    <rect id="Rectangle_13" data-name="Rectangle 13" width="17.177" height="17.177" transform="translate(1150.33 -1881.786) rotate(90)" fill="#3f3d56"/>
    <rect id="Rectangle_14" data-name="Rectangle 14" width="17.177" height="17.177" transform="translate(1122.656 -1881.787) rotate(90)" fill="#3f3d56"/>
    <rect id="Rectangle_15" data-name="Rectangle 15" width="17.177" height="17.177" transform="translate(1094.981 -1881.786) rotate(90)" fill="#3f3d56"/>
    <rect id="Rectangle_16" data-name="Rectangle 16" width="57.258" height="57.258" transform="translate(1113.742 -2144.01)" fill="#6c63ff"/>
    <g id="Group_5" data-name="Group 5">
      <ellipse id="Ellipse_2" data-name="Ellipse 2" cx="45.5" cy="6.5" rx="45.5" ry="6.5" transform="translate(765.4 -1812.093)" fill="#e6e6e6"/>
      <path id="Path_3" data-name="Path 3" d="M504.454,480.943l-.741,1.482-2.223-11.117s-2.965-11.858,2.965-11.858,4.447,11.858,4.447,11.858v8.152Z" transform="translate(266.151 -2488.35)" fill="#d08754"/>
      <path id="Path_4" data-name="Path 4" d="M601.7,479.425l.741,1.482,2.223-11.117s2.965-11.858-2.965-11.858-4.447,11.858-4.447,11.858v8.153Z" transform="translate(266.151 -2488.35)" fill="#d08754"/>
      <path id="Path_5" data-name="Path 5" d="M382.215,358.94l-8.893,54.844,4.446,53.361,10.376-4.446-1.482-40.022,10.376-31.869,2.223,37.8-4.446,39.28,13.34,1.483,9.635-80.784-.741-27.422Z" transform="translate(421 -2283)" fill="#2f2e41"/>
      <path id="Path_6" data-name="Path 6" d="M537.064,665.825l-5.188,8.152v18.216a2.209,2.209,0,0,0,1.856,2.18c2.543.417,6.971.714,8.52-1.868,2.223-3.706.741-11.858.741-11.858s2.965-5.929,1.482-10.376-2.965-5.188-2.965-5.188Z" transform="translate(266.151 -2488.35)" fill="#2f2e41"/>
      <path id="Path_7" data-name="Path 7" d="M559.3,673.237l1.482,2.223s2.223,2.223.741,3.706a28.977,28.977,0,0,0-2.965,3.706s-8.152,2.223-8.152-.741V672.5Z" transform="translate(266.151 -2488.35)" fill="#2f2e41"/>
      <circle id="Ellipse_7" data-name="Ellipse 7" cx="9.824" cy="9.824" r="9.824" transform="translate(812.954 -2004.029)" fill="#d08754"/>
      <path id="Path_8" data-name="Path 8" d="M395.185,291.867l-.741,14.082,13.34.741-.741-14.082Z" transform="translate(421 -2283)" fill="#d08754"/>
      <path id="Path_9" data-name="Path 9" d="M564.486,512.41l-2.1-5.14s-9.754-3.754-12.719-.048l-1.482,4.447L536.323,508.7l-6.67,14.823,5.929,42.245s15.564,20.011,36.316.741l5.929-40.021-4.446-15.564Z" transform="translate(266.151 -2488.35)" fill="#575a89"/>
      <path id="Path_10" data-name="Path 10" d="M417.049,308.543l1.482-2.965,14.823-8.894,9.046-26.777,7,3-7.894,31.93-21.493,20.01Z" transform="translate(421 -2283)" fill="#575a89"/>
      <path id="Path_11" data-name="Path 11" d="M382.956,304.837l-1.482-1.482L365.91,293.72l-11.117-22.234L345.9,274.45l9.634,27.422,23.717,19.27Z" transform="translate(421 -2283)" fill="#575a89"/>
      <path id="Path_12" data-name="Path 12" d="M563.919,479.1l1.606-.8-2.409-.8v-.8s-12.047-4.819-13.653,3.213a16.143,16.143,0,0,0,0,19.275v2.409l12.85,1.606,1.606-4.819S571.95,483.919,563.919,479.1Z" transform="translate(266.151 -2488.35)" fill="#211e12"/>
    </g>
    <path id="Path_13" data-name="Path 13" d="M269.939,565.16l-2.855,1.428s-11.422,5.235-8.09,8.09,12.374-2.855,12.374-2.855l1.9-2.38Z" transform="translate(266.151 -2488.35)" fill="#d08754"/>
    <path id="Path_14" data-name="Path 14" d="M198.633,359.1l-8.826,59.247-13.326,41.4-7.138-3.331,6.662-56.632-19.036-16.181,1.428-23.8Z" transform="translate(421 -2283)" fill="#2f2e41"/>
    <path id="Path_15" data-name="Path 15" d="M323.24,663.2s8.09-4.283,8.566,1.9l-.952,6.187s2.855,10.946-6.663,8.566-2.855-9.518-2.855-9.518Z" transform="translate(266.151 -2488.35)" fill="#2f2e41"/>
    <path id="Path_16" data-name="Path 16" d="M318.005,583.72l-6.187,5.235s0,32.361,4.283,37.12,31.41,29.03,32.361,29.982,5.235-9.518,5.235-9.518L328,616.557,329.9,598Z" transform="translate(266.151 -2488.35)" fill="#2f2e41"/>
    <path id="Path_17" data-name="Path 17" d="M350.842,645.112s7.614-1.428,7.614,3.807a115.231,115.231,0,0,0,.952,12.374s1.9,16.657-4.283,14.277-8.566-19.036-8.566-19.036a7.089,7.089,0,0,1,2.855-3.331C351.318,652.25,350.842,645.112,350.842,645.112Z" transform="translate(266.151 -2488.35)" fill="#2f2e41"/>
    <path id="Path_18" data-name="Path 18" d="M172.2,288.424l1.428,17.609-3.807,6.662-10.47-9.994-.952-13.325Z" transform="translate(421 -2283)" fill="#d08754"/>
    <circle id="Ellipse_8" data-name="Ellipse 8" cx="11.422" cy="11.422" r="11.422" transform="translate(573.21 -2011.709)" fill="#d08754"/>
    <path id="Path_19" data-name="Path 19" d="M168.391,305.557l4.759-13.8,8.566,9.518,15.705,60.439-11.9,7.139-5.234-7.615-.952,9.994-23.32-4.759-1.9-63.771,4.756-6.7Z" transform="translate(421 -2283)" fill="#d0cde1"/>
    <path id="Path_20" data-name="Path 20" d="M161.728,373.135l-2.855-77.1-6.187,4.759-11.422,7.614,7.615,27.127,2.379,28.554Z" transform="translate(421 -2283)" fill="#2f2e41"/>
    <path id="Path_21" data-name="Path 21" d="M144.6,308.888l-3.332-.476-9.518,28.078-19.036,23.8,7.139,7.614,21.891-21.416,8.091-17.608Z" transform="translate(421 -2283)" fill="#2f2e41"/>
    <path id="Path_22" data-name="Path 22" d="M351.417,565.595l-.649,3.126s-2.971,12.208,1.335,11.363,5.428-11.48,5.428-11.48l-.688-2.969Z" transform="translate(266.151 -2488.35)" fill="#d08754"/>
    <path id="Path_23" data-name="Path 23" d="M172.406,290.983l23.587,9.339-2.855,28.554,5.711,31.41-5.711,6.186-21.116-71.444Z" transform="translate(421 -2283)" fill="#2f2e41"/>
    <path id="Path_24" data-name="Path 24" d="M319.079,468.881l3.353-1.676v1.676l2.235-1.118v2.794s8.382,6.146,6.705,13.41-1.676,7.823-1.676,7.823-2.119-13.814-10.5-11.579S310.139,482.85,307.9,489l-.606,2.636S297.846,470,319.079,468.881Z" transform="translate(266.151 -2488.35)" fill="#211e12"/>
    <path id="Path_25" data-name="Path 25" d="M192.662,300.322h3.807l6.187,33.313v29.03l-7.614-1.428-6.187-43.783Z" transform="translate(421 -2283)" fill="#2f2e41"/>
    <rect id="Rectangle_17" data-name="Rectangle 17" width="140.321" height="97.511" transform="translate(424.535 -1912.228)" fill="#6c63ff"/>
    <path id="Path_26" data-name="Path 26" d="M228.545,595.148a29.729,29.729,0,1,0,29.729,29.729,29.729,29.729,0,0,0-29.729-29.729Zm0,8.919a8.919,8.919,0,1,1-8.919,8.919,8.919,8.919,0,0,1,8.919-8.919Zm0,42.936a21.658,21.658,0,0,1-17.837-9.519c.143-5.946,11.892-9.219,17.837-9.219s17.695,3.273,17.837,9.219A21.693,21.693,0,0,1,228.545,647Z" transform="translate(266.151 -2488.35)" fill="#fff"/>
    <rect id="Rectangle_18" data-name="Rectangle 18" width="176" height="101" transform="translate(705.187 -2192.093)" fill="#e6e6e6"/>
    <rect id="Rectangle_20" data-name="Rectangle 20" width="2" height="202.921" transform="translate(704.689 -2191.224) rotate(-60.15)" fill="#fff"/>
    <rect id="Rectangle_21" data-name="Rectangle 21" width="202.921" height="2" transform="matrix(0.867, -0.498, 0.498, 0.867, 704.685, -2091.965)" fill="#fff"/>
    <rect id="Rectangle_22" data-name="Rectangle 22" width="2" height="80.61" transform="translate(1113.484 -2143.387) rotate(-45)" fill="#fff"/>
    <rect id="Rectangle_23" data-name="Rectangle 23" width="80.61" height="2" transform="translate(1113.484 -2087.802) rotate(-45)" fill="#fff"/>
    <ellipse id="Ellipse_2-2" data-name="Ellipse 2" cx="45.5" cy="6.5" rx="45.5" ry="6.5" transform="translate(1182.4 -1817.093)" fill="#e6e6e6"/>
    <path id="Path_4-2" data-name="Path 4" d="M601.7,479.425l.741,1.482,2.223-11.117s2.965-11.858-2.965-11.858-4.447,11.858-4.447,11.858v8.153Z" transform="translate(550.079 -2257.03) rotate(-19)" fill="#d08754"/>
    <rect id="Rectangle_19" data-name="Rectangle 19" width="103.064" height="8.053" transform="translate(1276.377 -2006.236) rotate(180)" fill="#6c63ff"/>
    <path id="Path_3-2" data-name="Path 3" d="M504.454,480.943l-.741,1.482-2.223-11.117s-2.965-11.858,2.965-11.858,4.447,11.858,4.447,11.858v8.152Z" transform="translate(682.151 -2480.35)" fill="#d08754"/>
    <path id="Path_5-2" data-name="Path 5" d="M382.215,358.94l-8.893,54.844,4.446,53.361,10.376-4.446-1.482-40.022,10.376-31.869,2.223,37.8-4.446,39.28,13.34,1.483,9.635-80.784-.741-27.422Z" transform="translate(838 -2288)" fill="#2f2e41"/>
    <path id="Path_6-2" data-name="Path 6" d="M537.064,665.825l-5.188,8.152v18.216a2.209,2.209,0,0,0,1.856,2.18c2.543.417,6.971.714,8.52-1.868,2.223-3.706.741-11.858.741-11.858s2.965-5.929,1.482-10.376-2.965-5.188-2.965-5.188Z" transform="translate(683.151 -2493.35)" fill="#2f2e41"/>
    <path id="Path_7-2" data-name="Path 7" d="M559.3,673.237l1.482,2.223s2.223,2.223.741,3.706a28.977,28.977,0,0,0-2.965,3.706s-8.152,2.223-8.152-.741V672.5Z" transform="translate(683.151 -2493.35)" fill="#2f2e41"/>
    <circle id="Ellipse_7-2" data-name="Ellipse 7" cx="9.824" cy="9.824" r="9.824" transform="translate(1229.954 -2009.029)" fill="#d08754"/>
    <path id="Path_8-2" data-name="Path 8" d="M395.185,291.867l-.741,14.082,13.34.741-.741-14.082Z" transform="translate(838 -2288)" fill="#d08754"/>
    <path id="Path_9-2" data-name="Path 9" d="M564.486,512.41l-2.1-5.14s-9.754-3.754-12.719-.048l-1.565,3.706-8.287-1.913-7.044,1.036-3.115,13.476,5.929,42.245s15.564,20.011,36.316.741l5.929-40.021-4.446-15.564Z" transform="translate(683.151 -2493.35)" fill="#575a89"/>
    <path id="Path_10-2" data-name="Path 10" d="M417.049,308.543l1.482-2.965,13.461,2.965V288.429l7.331-1.753,1.434,29.483-20.744,8.689Z" transform="translate(838 -2288)" fill="#575a89"/>
    <path id="Path_11-2" data-name="Path 11" d="M382.257,306.707l-6.2-3.249-15.495-2.513-7.6-18.266-7.233,1.716,6.007,26.479,26.847,13.607Z" transform="translate(838 -2288)" fill="#575a89"/>
    <path id="Path_12-2" data-name="Path 12" d="M563.919,479.1l1.606-.8-2.409-.8v-.8s-12.047-4.819-13.653,3.213a16.143,16.143,0,0,0,0,19.275v2.409l12.85,1.606,1.606-4.819S571.95,483.919,563.919,479.1Z" transform="translate(683.151 -2493.35)" fill="#211e12"/>
  </g>
</svg>
