<svg xmlns="http://www.w3.org/2000/svg" width="761.32" height="517.22" viewBox="0 0 761.32 517.22">
  <g id="Group_1" data-name="Group 1" transform="translate(98.956 -260.748)">
    <g id="Group_1-2" data-name="Group 1" transform="translate(-213.912 116.495)">
      <path id="Path_4" data-name="Path 4" d="M825.39,601.261H312.552a16.519,16.519,0,0,1-16.5-16.5V276.607a12.1,12.1,0,0,1,12.088-12.088H829.593a12.311,12.311,0,0,1,12.3,12.3V584.761a16.519,16.519,0,0,1-16.5,16.5Z" transform="translate(-180.864 -106.46)" fill="#f2f2f2"/>
      <path id="Path_5" data-name="Path 5" d="M328.552,584.761H809.391a16,16,0,0,0,16-16V307.213a16,16,0,0,0-16-16H328.552a16,16,0,0,0-16,16V568.761A16,16,0,0,0,328.552,584.761Z" transform="translate(-180.864 -106.46)" fill="#fff"/>
      <path id="Path_6" data-name="Path 6" d="M841.66,275.663H295.82v-8.4a16.574,16.574,0,0,1,16.56-16.55H825.1a16.574,16.574,0,0,1,16.56,16.55Z" transform="translate(-180.864 -106.46)" fill="#6c63ff"/>
      <circle id="Ellipse_2" data-name="Ellipse 2" cx="4.283" cy="4.283" r="4.283" transform="translate(140.768 152.469)" fill="#fff"/>
      <circle id="Ellipse_3" data-name="Ellipse 3" cx="4.283" cy="4.283" r="4.283" transform="translate(157.027 152.469)" fill="#fff"/>
      <circle id="Ellipse_4" data-name="Ellipse 4" cx="4.283" cy="4.283" r="4.283" transform="translate(173.286 152.469)" fill="#fff"/>
      <path id="Path_7" data-name="Path 7" d="M583.974,528.04h-43a9.511,9.511,0,0,1-9.5-9.5v-43a9.511,9.511,0,0,1,9.5-9.5h43a9.511,9.511,0,0,1,9.5,9.5v43A9.511,9.511,0,0,1,583.974,528.04Zm-43-60a7.508,7.508,0,0,0-7.5,7.5v43a7.508,7.508,0,0,0,7.5,7.5h43a7.508,7.508,0,0,0,7.5-7.5v-43a7.508,7.508,0,0,0-7.5-7.5Z" transform="translate(-180.864 -106.46)" fill="#ccc"/>
      <path id="Path_8" data-name="Path 8" d="M575.474,516.04h-26a3,3,0,0,1-3-3v-32a3,3,0,0,1,3-3h18.839a3.008,3.008,0,0,1,1.879.662l7.16,5.754a2.984,2.984,0,0,1,1.121,2.338V513.04a3,3,0,0,1-3,3Zm-26-36a1,1,0,0,0-1,1v32a1,1,0,0,0,1,1h26a1,1,0,0,0,1-1V486.794a.994.994,0,0,0-.373-.779l-7.161-5.754a1,1,0,0,0-.626-.22Z" transform="translate(-180.864 -106.46)" fill="#ccc"/>
      <path id="Path_9" data-name="Path 9" d="M570.474,492.04h-16a1,1,0,0,1,0-2h16a1,1,0,0,1,0,2Z" transform="translate(-180.864 -106.46)" fill="#ccc"/>
      <path id="Path_10" data-name="Path 10" d="M570.474,498.04h-16a1,1,0,0,1,0-2h16a1,1,0,0,1,0,2Z" transform="translate(-180.864 -106.46)" fill="#ccc"/>
      <path id="Path_11" data-name="Path 11" d="M570.474,504.04h-16a1,1,0,0,1,0-2h16a1,1,0,0,1,0,2Z" transform="translate(-180.864 -106.46)" fill="#ccc"/>
      <path id="Path_12" data-name="Path 12" d="M685.974,528.04h-43a9.511,9.511,0,0,1-9.5-9.5v-43a9.511,9.511,0,0,1,9.5-9.5h43a9.511,9.511,0,0,1,9.5,9.5v43a9.511,9.511,0,0,1-9.5,9.5Zm-43-60a7.508,7.508,0,0,0-7.5,7.5v43a7.508,7.508,0,0,0,7.5,7.5h43a7.508,7.508,0,0,0,7.5-7.5v-43a7.508,7.508,0,0,0-7.5-7.5Z" transform="translate(-180.864 -106.46)" fill="#ccc"/>
      <path id="Path_13" data-name="Path 13" d="M678.474,508.04h-28a3,3,0,0,1-3-3v-16a3,3,0,0,1,3-3h28a3,3,0,0,1,3,3v16a3,3,0,0,1-3,3Zm-28-20a1,1,0,0,0-1,1v16a1,1,0,0,0,1,1h28a1,1,0,0,0,1-1v-16a1,1,0,0,0-1-1Z" transform="translate(-180.864 -106.46)" fill="#ccc"/>
      <path id="Path_14" data-name="Path 14" d="M664.474,499.678a3,3,0,0,1-1.59-.453l-14.94-9.337a1,1,0,1,1,1.061-1.7l14.94,9.337a1.006,1.006,0,0,0,1.06,0l14.94-9.337a1,1,0,0,1,1.061,1.7l-14.94,9.337a3,3,0,0,1-1.591.453Z" transform="translate(-180.864 -106.46)" fill="#ccc"/>
      <path id="Path_15" data-name="Path 15" d="M481.974,528.04h-43a9.511,9.511,0,0,1-9.5-9.5v-43a9.511,9.511,0,0,1,9.5-9.5h43a9.511,9.511,0,0,1,9.5,9.5v43A9.511,9.511,0,0,1,481.974,528.04Zm-43-60a7.508,7.508,0,0,0-7.5,7.5v43a7.508,7.508,0,0,0,7.5,7.5h43a7.508,7.508,0,0,0,7.5-7.5v-43a7.508,7.508,0,0,0-7.5-7.5Z" transform="translate(-180.864 -106.46)" fill="#ccc"/>
      <path id="Path_16" data-name="Path 16" d="M474.474,508.04h-28a3,3,0,0,1-3-3v-16a3,3,0,0,1,3-3h28a3,3,0,0,1,3,3v16a3,3,0,0,1-3,3Zm-28-20a1,1,0,0,0-1,1v16a1,1,0,0,0,1,1h28a1,1,0,0,0,1-1v-16a1,1,0,0,0-1-1Z" transform="translate(-180.864 -106.46)" fill="#ccc"/>
      <path id="Path_17" data-name="Path 17" d="M470.036,508.04H449.912a2,2,0,0,1-1.732-3l6.061-10.5a2,2,0,0,1,3.464,0l3.915,6.781,2.268-3.929a2,2,0,0,1,3.464,0l4.415,7.647a2,2,0,0,1-1.732,3Zm0-2h0l-4.415-7.647-3.134,5.429a1,1,0,0,1-.866.5h0a1,1,0,0,1-.866-.5l-4.781-8.281-6.062,10.5Z" transform="translate(-180.864 -106.46)" fill="#ccc"/>
      <circle id="Ellipse_5" data-name="Ellipse 5" cx="2" cy="2" r="2" transform="translate(288.61 383.579)" fill="#ccc"/>
      <path id="Path_18" data-name="Path 18" d="M768.825,648.15h-12.26l-5.832-47.288h18.094Z" fill="#d08754"/>
      <path id="Path_19" data-name="Path 19" d="M952.816,766.494H913.285v-.5a15.386,15.386,0,0,1,15.387-15.386h24.145Z" transform="translate(-180.864 -106.46)" fill="#2f2e41"/>
      <path id="Path_20" data-name="Path 20" d="M818.825,648.15h-12.26l-5.832-47.288h18.094Z" fill="#d08754"/>
      <path id="Path_21" data-name="Path 21" d="M1002.82,766.494H963.289v-.5a15.386,15.386,0,0,1,15.387-15.386h24.145Z" transform="translate(-180.864 -106.46)" fill="#2f2e41"/>
      <path id="Path_22" data-name="Path 22" d="M996.014,734.111l-11.354-3.454a4.493,4.493,0,0,1-3.166-3.833L970.908,626.5a.48.48,0,0,0-.479-.447.469.469,0,0,0-.511.409l-17.731,97.2a4.5,4.5,0,0,1-5.335,3.6l-14.511-2.989a4.516,4.516,0,0,1-3.582-4.712l10.785-159.313,73.138-7.892-10.868,177.727a4.5,4.5,0,0,1-5.8,4.032Z" transform="translate(-180.864 -106.46)" fill="#2f2e41"/>
      <circle id="Ellipse_6" data-name="Ellipse 6" cx="24.561" cy="24.561" r="24.561" transform="translate(790.519 265.926)" fill="#d08754"/>
      <path id="Path_23" data-name="Path 23" d="M939.433,561.18l15.858-99.851a37.858,37.858,0,0,1,48.005-30.4h0a37.743,37.743,0,0,1,26.6,43.262L1013.3,563.363Z" transform="translate(-180.864 -106.46)" fill="#6c63ff"/>
      <path id="Path_24" data-name="Path 24" d="M1002.72,579.046a10.056,10.056,0,0,0,1.747-15.32l16.4-31.751-18.465,1.97-12.739,29.849a10.11,10.11,0,0,0,13.061,15.251Z" transform="translate(-180.864 -106.46)" fill="#d08754"/>
      <path id="Path_25" data-name="Path 25" d="M1006.24,558.126a4.506,4.506,0,0,1-2.427-1.151l-6.273-5.8a4.514,4.514,0,0,1-1.092-5.054l12.537-29.718-1.779-58.72a14.5,14.5,0,1,1,28.73,3.919l3.038,36.912a46.373,46.373,0,0,1-8.938,31.4l-19.552,26.432a4.5,4.5,0,0,1-3.2,1.8A4.455,4.455,0,0,1,1006.24,558.126Z" transform="translate(-180.864 -106.46)" fill="#6c63ff"/>
      <path id="Path_26" data-name="Path 26" d="M854.505,383.566a10.056,10.056,0,0,0,13.426,7.582l22.846,27.478,5.385-17.772-22.52-23.369a10.11,10.11,0,0,0-19.137,6.081Z" transform="translate(-180.864 -106.46)" fill="#d08754"/>
      <path id="Path_27" data-name="Path 27" d="M872.4,394.956a4.506,4.506,0,0,1,2.006-1.786l7.784-3.517a4.515,4.515,0,0,1,5.08.965l22.478,23.132,54.766,21.257A14.5,14.5,0,1,1,949.7,459.936l-35.175-11.595A46.373,46.373,0,0,1,889.1,427.87l-16.717-28.311a4.5,4.5,0,0,1-.415-3.646,4.452,4.452,0,0,1,.432-.958Z" transform="translate(-180.864 -106.46)" fill="#6c63ff"/>
      <path id="Path_28" data-name="Path 28" d="M835,375.652l-1,32-18.42,32.011,15.382-35.673Z" opacity="0.1"/>
      <path id="Path_29" data-name="Path 29" d="M993.13,401.563a6.423,6.423,0,0,1-7.03-4.7,9.764,9.764,0,0,0-6.951-7.274c-4.505-1.03-10.012,1.091-13.313-2.322a6.637,6.637,0,0,1-1.575-5.842c.608-3.317,2.981-5.823,5.563-7.828a34.063,34.063,0,0,1,18.866-7.051,67.68,67.68,0,0,1,10.621.528,47.009,47.009,0,0,1,10.864,1.985,25.576,25.576,0,0,1,16,18.68,29.528,29.528,0,0,1-6.057,24.13,31.7,31.7,0,0,1-12.16,9.259,4.744,4.744,0,0,1-3.606.183c-2.957-1.176-2.474-4.839-1.126-7.283,1.443-2.615,3.663-5.146,2.5-8.329a6.3,6.3,0,0,0-3.127-3.366c-2.94-1.5-6.228-1.145-9.389-.78Z" transform="translate(-180.864 -106.46)" fill="#211e12"/>
      <path id="Path_30" data-name="Path 30" d="M846.3,415.433h-304a16.519,16.519,0,0,1-16.5-16.5v-65a16.519,16.519,0,0,1,16.5-16.5h304a16.519,16.519,0,0,1,16.5,16.5v65A16.519,16.519,0,0,1,846.3,415.433Z" transform="translate(-180.864 -106.46)" fill="#fff"/>
      <path id="Path_31" data-name="Path 31" d="M846.3,415.933h-304a17.019,17.019,0,0,1-17-17v-65a17.019,17.019,0,0,1,17-17h304a17.019,17.019,0,0,1,17,17v65a17.019,17.019,0,0,1-17,17Zm-304-97a15.017,15.017,0,0,0-15,15v65a15.017,15.017,0,0,0,15,15h304a15.017,15.017,0,0,0,15-15v-65a15.017,15.017,0,0,0-15-15Z" transform="translate(-180.864 -106.46)" fill="#3f3d56"/>
      <path id="Path_32" data-name="Path 32" d="M809.3,399.433h-230a16.519,16.519,0,0,1-16.5-16.5v-34a16.519,16.519,0,0,1,16.5-16.5h230a16.519,16.519,0,0,1,16.5,16.5v34a16.519,16.519,0,0,1-16.5,16.5Z" transform="translate(-180.864 -106.46)" fill="#f2f2f2"/>
      <circle id="Ellipse_7" data-name="Ellipse 7" cx="19.732" cy="19.732" r="19.732" transform="translate(428.196 235.183)" fill="#ff6584"/>
      <path id="Path_33" data-name="Path 33" d="M795,397.442l-27.852-23.36L739.78,351.126a4,4,0,0,0-5.153.01L707.344,374.2l-6.664,5.633L690.632,371.4,660.1,345.789a4,4,0,0,0-5.152.01L624.5,371.531l-30.917,26.133a1,1,0,0,0,.648,1.764l63.387-.122,20.064-.039-.2.166,59.808-.115,57.067-.11a1,1,0,0,0,.641-1.766Z" transform="translate(-180.864 -106.46)" fill="#3f3d56"/>
      <path id="Path_34" data-name="Path 34" d="M1056.14,767.933h-192a1,1,0,0,1,0-2h192a1,1,0,0,1,0,2Z" transform="translate(-180.864 -106.46)" fill="#ccc"/>
      <path id="Path_48" data-name="Path 48" d="M377.474,438.933h-43a9.511,9.511,0,0,1-9.5-9.5v-43a9.511,9.511,0,0,1,9.5-9.5h43a9.511,9.511,0,0,1,9.5,9.5v43a9.511,9.511,0,0,1-9.5,9.5Z" transform="translate(-180.864 -106.46)" fill="#fff"/>
      <path id="Path_49" data-name="Path 49" d="M377.474,438.933h-43a9.511,9.511,0,0,1-9.5-9.5v-43a9.511,9.511,0,0,1,9.5-9.5h43a9.511,9.511,0,0,1,9.5,9.5v43a9.511,9.511,0,0,1-9.5,9.5Zm-43-60a7.508,7.508,0,0,0-7.5,7.5v43a7.508,7.508,0,0,0,7.5,7.5h43a7.508,7.508,0,0,0,7.5-7.5v-43a7.508,7.508,0,0,0-7.5-7.5Z" transform="translate(-180.864 -106.46)" fill="#3f3d56"/>
      <path id="Path_50" data-name="Path 50" d="M369.974,421.433h-28a3,3,0,0,1-3-3v-21a3,3,0,0,1,3-3h7.882a2.981,2.981,0,0,1,2.555,1.427l2.2,3.573h15.364a3,3,0,0,1,3,3v16a3,3,0,0,1-3,3Z" transform="translate(-180.864 -106.46)" fill="#6c63ff"/>
    </g>
  </g>
</svg>
