<svg xmlns="http://www.w3.org/2000/svg" width="920.109" height="411.952" viewBox="0 0 920.109 411.952">
  <g id="Group_1" data-name="Group 1" transform="translate(-97 -397)">
    <g id="Group_1-2" data-name="Group 1" transform="translate(438 140)">
      <path id="Path_1" data-name="Path 1" d="M576.472,654.024H772.063c7.721,0,7.734-12,0-12H576.472C568.751,642.024,568.738,654.024,576.472,654.024Z" transform="translate(-480.946 12.976)" fill="#e6e6e6"/>
      <path id="Path_2" data-name="Path 2" d="M523.665,393.255H328.732a7.777,7.777,0,0,0-7.767,7.767v38.725c9.723.228,16.035,8.252,17.564,17.993v35.107h.738a.444.444,0,0,1,.443.443v18.681a.444.444,0,0,1-.443.443h-.738V625.323c0,2.481-.025,7.007-.025,7.007H523.665a7.777,7.777,0,0,0,7.767-7.767V401.022a7.777,7.777,0,0,0-7.767-7.767Z" transform="translate(-480.946 12.976)" fill="#41414a"/>
      <path id="Path_3" data-name="Path 3" d="M885.845,265.834v211.9H544.914v-93.3a15.993,15.993,0,0,0-15.977-15.977H465V265.834Z" transform="translate(-480.946 12.976)" fill="#41414a"/>
      <path id="Path_4" data-name="Path 4" d="M906.9,507.607H545.3V506.13H905.418V256.576A11.087,11.087,0,0,0,894.343,245.5H452.084a11.088,11.088,0,0,0-11.075,11.075v110.93h-1.477V256.576a12.566,12.566,0,0,1,12.552-12.552H894.343a12.566,12.566,0,0,1,12.552,12.552Z" transform="translate(-480.946 12.976)" fill="#3f3d56"/>
      <path id="Path_5" data-name="Path 5" d="M872.632,552.645H545.295v-1.477H872.632a32.823,32.823,0,0,0,32.786-32.785V507.607H545.295V506.13H906.9v12.253a34.3,34.3,0,0,1-34.263,34.262Z" transform="translate(-480.946 12.976)" fill="#3f3d56"/>
      <path id="Path_6" data-name="Path 6" d="M775.485,625c-18.248-17.522-30.252-40.384-34.111-72.356H606.885c-1.368,29.912-13.3,52.345-34.813,72.277L569.8,625c22.2-20.118,34.427-42.716,35.641-73.125l.028-.709H742.687l.076.653c3.79,32.513,16.045,55.523,34.743,73.062Z" transform="translate(-480.946 12.976)" fill="#3f3d56"/>
      <path id="Path_7" data-name="Path 7" d="M528.58,655.548H321.407v-1.477H528.58a16,16,0,0,0,15.977-15.977V384.778A16,16,0,0,0,528.58,368.8H321.407a16,16,0,0,0-15.977,15.977v54.667h-1.477V384.778a17.473,17.473,0,0,1,17.453-17.453H528.58a17.473,17.473,0,0,1,17.453,17.454V638.095a17.473,17.473,0,0,1-17.453,17.453Z" transform="translate(-480.946 12.976)" fill="#3f3d56"/>
      <path id="Path_8" data-name="Path 8" d="M424.993,386.007A5.007,5.007,0,1,1,430,381a5.007,5.007,0,0,1-5.007,5.007Zm0-8.856A3.849,3.849,0,1,0,428.842,381,3.849,3.849,0,0,0,424.993,377.151Z" transform="translate(-480.946 12.976)" fill="#3f3d56"/>
      <path id="Path_9" data-name="Path 9" d="M424.993,649.888a6.388,6.388,0,1,1,6.388-6.388,6.388,6.388,0,0,1-6.388,6.388Zm0-11.3A4.912,4.912,0,1,0,429.9,643.5a4.912,4.912,0,0,0-4.907-4.912Z" transform="translate(-480.946 12.976)" fill="#3f3d56"/>
      <path id="Path_10" data-name="Path 10" d="M319.326,655.976h-68.58A19.5,19.5,0,0,1,231.273,636.5V458.919a19.5,19.5,0,0,1,19.473-19.473h68.58A19.5,19.5,0,0,1,338.8,458.919V490.7a1.923,1.923,0,0,1,1.182,1.772V513.15a1.923,1.923,0,0,1-1.182,1.772V636.5a19.5,19.5,0,0,1-19.474,19.473Zm-68.58-215.054a18.017,18.017,0,0,0-18,18V636.5a18.017,18.017,0,0,0,18,18h68.58a18.017,18.017,0,0,0,18-18V513.592h.738a.444.444,0,0,0,.443-.443V492.471a.444.444,0,0,0-.443-.443h-.738V458.919a18.017,18.017,0,0,0-18-18Z" transform="translate(-480.946 12.976)" fill="#3f3d56"/>
      <path id="Path_11" data-name="Path 11" d="M320.082,445.058H311.13a6.647,6.647,0,0,1-6.154,9.157H265.687a6.647,6.647,0,0,1-6.154-9.158h-8.361a13.991,13.991,0,0,0-13.991,13.991V636.372a13.991,13.991,0,0,0,13.991,13.991h68.91a13.991,13.991,0,0,0,13.991-13.991h0V459.049A13.991,13.991,0,0,0,320.082,445.058Z" transform="translate(-480.946 12.976)" fill="#41414a"/>
      <path id="Path_12" data-name="Path 12" d="M1059.18,655.687H140.825a.879.879,0,0,1,0-1.758h918.351a.879.879,0,1,1,0,1.758Z" transform="translate(-480.946 12.976)" fill="#3f3d56"/>
      <path id="Path_13" data-name="Path 13" d="M775.941,655.273H571.424a15.5,15.5,0,1,1,0-31.01H775.941a15.505,15.505,0,0,1,0,31.01ZM571.424,625.74a14.029,14.029,0,0,0,0,28.057H775.941a14.028,14.028,0,1,0,0-28.056Z" transform="translate(-480.946 12.976)" fill="#3f3d56"/>
      <circle id="Ellipse_88" data-name="Ellipse 88" cx="2.962" cy="2.962" r="2.962" transform="translate(180.5 267.077)" fill="#3f3d56"/>
      <circle id="Ellipse_89" data-name="Ellipse 89" cx="2.962" cy="2.962" r="2.962" transform="translate(189.016 267.077)" fill="#3f3d56"/>
      <circle id="Ellipse_90" data-name="Ellipse 90" cx="2.962" cy="2.962" r="2.962" transform="translate(197.532 267.077)" fill="#3f3d56"/>
      <path id="Path_552" data-name="Path 552" d="M792.253,565.923a10.094,10.094,0,0,1,1.411.787l44.852-19.143,1.6-11.815,17.922-.11-1.059,27.1L797.78,578.4a10.626,10.626,0,0,1-.448,1.208,10.235,10.235,0,1,1-5.079-13.682Z" transform="translate(-417.223 -154.043)" fill="#d08754"/>
      <path id="Path_553" data-name="Path 553" d="M636.98,735.021H624.72l-5.832-47.288h18.094Z" transform="translate(-198 -77.582)" fill="#d08754"/>
      <path id="Path_554" data-name="Path 554" d="M615.963,731.518h23.644V746.4H601.076a14.887,14.887,0,0,1,14.887-14.887Z" transform="translate(-198 -78.582)" fill="#2f2e41"/>
      <path id="Path_555" data-name="Path 555" d="M684.66,731.557l-12.2,1.2-10.441-46.488,18.007-1.774Z" transform="translate(-198 -77.582)" fill="#d08754"/>
      <path id="Path_556" data-name="Path 556" d="M14.886,0H38.53V14.887H0A14.887,14.887,0,0,1,14.887,0Z" transform="translate(451.218 653.083)" fill="#2f2e41"/>
      <circle id="Ellipse_84" data-name="Ellipse 84" cx="24.561" cy="24.561" r="24.561" transform="translate(417.832 282.431)" fill="#d08754"/>
      <path id="Path_557" data-name="Path 557" d="M849.556,801.919a4.471,4.471,0,0,1-4.415-3.7C838.8,763,818.053,647.817,817.557,644.626a1.422,1.422,0,0,1-.016-.222v-8.588a1.489,1.489,0,0,1,.279-.872l2.74-3.838a1.479,1.479,0,0,1,1.144-.625c15.622-.732,66.784-2.879,69.256.209h0c2.482,3.1,1.6,12.507,1.4,14.36l.01.193,22.985,147a4.512,4.512,0,0,1-3.715,5.135l-14.356,2.365a4.521,4.521,0,0,1-5.025-3.093c-4.44-14.188-19.329-61.918-24.489-80.387a.5.5,0,0,0-.981.139c.258,17.606.881,62.523,1.1,78.037l.023,1.671a4.518,4.518,0,0,1-4.093,4.536L849.976,801.9a4.161,4.161,0,0,1-.42.019Z" transform="translate(-425.576 -154.043)" fill="#2f2e41"/>
      <path id="Path_99" data-name="Path 99" d="M852.381,495.254c-4.286,2.548-6.851,7.23-8.323,12a113.689,113.689,0,0,0-4.884,27.159l-1.556,27.6-19.255,73.17c16.689,14.121,26.315,10.911,48.781-.639s25.032,3.851,25.032,3.851l4.492-62.258,6.418-68.032a30.167,30.167,0,0,0-4.862-4.674,49.659,49.659,0,0,0-42.442-9Z" transform="translate(-425.576 -154.043)" fill="#6c63ff"/>
      <path id="Path_558" data-name="Path 558" d="M846.127,580.7a10.525,10.525,0,0,1,1.5.7l44.348-22.2.736-12.026,18.294-1.261.98,27.413-59.266,19.6a10.5,10.5,0,1,1-6.593-12.232Z" transform="translate(-425.576 -154.043)" fill="#d08754"/>
      <path id="Path_101" data-name="Path 101" d="M902.766,508.411c10.911,3.851,12.834,45.574,12.834,45.574-12.837-7.06-28.241,4.493-28.241,4.493s-3.209-10.912-7.06-25.032a24.53,24.53,0,0,1,5.134-23.106S891.854,504.558,902.766,508.411Z" transform="translate(-425.576 -154.043)" fill="#6c63ff"/>
      <path id="Path_102" data-name="Path 102" d="M889.991,467.531c-3.06-2.448-7.235,2-7.235,2L880.308,447.5s-15.3,1.833-25.094-.612-11.323,8.875-11.323,8.875a78.572,78.572,0,0,1-.306-13.771c.612-5.508,8.568-11.017,22.645-14.689s21.421,12.241,21.421,12.241C897.445,444.439,893.051,469.979,889.991,467.531Z" transform="translate(-425.576 -154.043)" fill="#211e12"/>
    </g>
  </g>
</svg>
