<svg xmlns="http://www.w3.org/2000/svg" width="631.484" height="593.94" viewBox="0 0 631.484 593.94">
  <g id="Group_1" data-name="Group 1" transform="translate(-361 -199)">
    <g id="undraw_Blog_post_re_fy5x" transform="translate(361 199)">
      <path id="Path_1" data-name="Path 1" d="M790.353,612.97a26,26,0,1,1,26-26,26,26,0,0,1-26,26Z" transform="translate(-284.259 -153.03)" fill="#ccc"/>
      <path id="Path_2" data-name="Path 2" d="M802.353,585.97h-11v-12.5a1,1,0,0,0-2,0v12.5h-11a1,1,0,0,0,0,2h11v12.5a1,1,0,0,0,2,0v-12.5h11a1,1,0,0,0,0-2Z" transform="translate(-284.259 -153.03)" fill="#fff"/>
      <path id="Path_3" data-name="Path 3" d="M606.22,581.779H594.788l-5.436-44.1h16.872Z" fill="#ffb8b8"/>
      <path id="Path_4" data-name="Path 4" d="M586.622,578.511H608.67v13.882H572.74a13.882,13.882,0,0,1,13.882-13.882Z" fill="#2f2e41"/>
      <path id="Path_5" data-name="Path 5" d="M560.72,581.779H549.288l-5.436-44.1h16.872Z" fill="#ffb8b8"/>
      <path id="Path_6" data-name="Path 6" d="M541.122,578.511H563.17v13.882H527.24a13.882,13.882,0,0,1,13.882-13.882Z" fill="#2f2e41"/>
      <path id="Path_7" data-name="Path 7" d="M899.285,582.358a9.377,9.377,0,0,1,1.976-14.242l-3.541-21.133,12.318-5.284,4.581,29.915a9.428,9.428,0,0,1-15.334,10.745Z" transform="translate(-284.259 -153.03)" fill="#ffb8b8"/>
      <path id="Path_8" data-name="Path 8" d="M802.847,572.372a9.377,9.377,0,0,0,.4-14.373l6.984-20.258-11.276-7.246-9.46,28.747a9.428,9.428,0,0,0,13.349,13.13Z" transform="translate(-284.259 -153.03)" fill="#ffb8b8"/>
      <circle id="Ellipse_1" data-name="Ellipse 1" cx="24.561" cy="24.561" r="24.561" transform="translate(552.578 220.981)" fill="#ffb8b8"/>
      <path id="Path_9" data-name="Path 9" d="M802.088,557.216a4.5,4.5,0,0,1-1.245-.176l-7.159-2.055a4.508,4.508,0,0,1-3.088-5.551l14.774-52.162,20.6-50.575c2.049-5.028,6.329-8.325,11.17-8.605a11.446,11.446,0,0,1,10.778,6.277h0a15.621,15.621,0,0,1,.357,13.771l-23.417,51.21-18.616,45.084a4.5,4.5,0,0,1-4.156,2.784Z" transform="translate(-284.259 -153.03)" fill="#3f3d56"/>
      <path id="Path_10" data-name="Path 10" d="M875.258,419.169l-13.647.243a9.074,9.074,0,0,1-8.9-11.59,21.138,21.138,0,0,0,.656-3.013,15.229,15.229,0,0,0,.09-3.354,4.952,4.952,0,0,0-9.555-1.408h0c-2.295.033-7.183-.715-9.478-.683-4.872-12.49,5.745-28.833,17.174-34.972,11.651-6.258,26.775.109,31.241,13.152,6.2.111,11.235,6.225,12.033,13.106s-2.032,14.068-6.363,19.342S878.5,419.112,875.258,419.169Z" transform="translate(-284.259 -153.03)" fill="#2f2e41"/>
      <path id="Path_11" data-name="Path 11" d="M830.4,730.691a4.515,4.515,0,0,1-4.461-4.01l-5.064-170.235,63.787,4.541.049.41c14.415,120.663,9.487,162.432,9.436,162.839a4.5,4.5,0,0,1-5.075,4.2l-14.1.338a4.5,4.5,0,0,1-3.989-4.3l-13.171-123.3a1.406,1.406,0,0,0-1.466-1.056,1.463,1.463,0,0,0-1.439,1.177l-5.089,123.7a4.481,4.481,0,0,1-4.041,4.67l-14.932.993a4.449,4.449,0,0,1-.447.022Z" transform="translate(-284.259 -153.03)" fill="#2f2e41"/>
      <path id="Path_12" data-name="Path 12" d="M856.868,576.787c-.382,0-.762-.006-1.145-.018-18.342-.552-32.692-14.429-36.653-18.669a4.478,4.478,0,0,1-1.081-4.1l10.581-44.764-2.807-38.917a38.37,38.37,0,0,1,10.506-29.633,31.663,31.663,0,0,1,24.387-9.866c17.855.852,31.941,16.812,32.069,36.333.2,30.235-.693,32.312-.985,32.995-8.911,20.8-4.044,49.989-2.34,58.441a4.516,4.516,0,0,1-1.337,4.188C878.262,572.078,867.772,576.787,856.868,576.787Z" transform="translate(-284.259 -153.03)" fill="#3f3d56"/>
      <path id="Path_13" data-name="Path 13" d="M902.933,565.408a4.5,4.5,0,0,1-4.38-3.494l-10.917-47.557L873.005,460a15.621,15.621,0,0,1,2.627-13.522,11.456,11.456,0,0,1,11.667-4.41c4.729,1.076,8.405,5.035,9.595,10.332l11.955,53.229,5.962,53.941a4.509,4.509,0,0,1-3.963,4.965l-7.4.844a4.494,4.494,0,0,1-.516.03Z" transform="translate(-284.259 -153.03)" fill="#3f3d56"/>
      <path id="Path_14" data-name="Path 14" d="M315.09,570.537a10.743,10.743,0,0,0,1.582-16.4l4.167-93.018L299.624,463.5l1.233,90.985a10.8,10.8,0,0,0,14.234,16.049Z" transform="translate(-284.259 -153.03)" fill="#d08754"/>
      <path id="Path_15" data-name="Path 15" d="M69.534,574.966l12.075,2.123,11.934-45.564-15.821-3.133Z" fill="#d08754"/>
      <path id="Path_16" data-name="Path 16" d="M350.232,727.314h38.531V742.2H365.119a14.887,14.887,0,0,1-14.887-14.887Z" transform="translate(321.936 1369.365) rotate(-170.029)" fill="#2f2e41"/>
      <path id="Path_17" data-name="Path 17" d="M36.392,581.01h12.26l5.832-47.288H36.39Z" fill="#d08754"/>
      <path id="Path_18" data-name="Path 18" d="M318.024,730.536h38.531v14.887H332.911a14.887,14.887,0,0,1-14.887-14.887h0Z" transform="translate(390.354 1322.915) rotate(179.997)" fill="#2f2e41"/>
      <path id="Path_19" data-name="Path 19" d="M372.8,721.09a4.748,4.748,0,0,1-.572-.034l-14.43-1.187a4.881,4.881,0,0,1-4.242-5.659l13.325-74.681-9-47.474a1.627,1.627,0,0,0-3.219.16L343.4,718.842a4.924,4.924,0,0,1-5.21,4.437l-13.595-.506a4.888,4.888,0,0,1-4.536-4.631l-.914-151.768,70.481-8.81,4.924,76.041-.02.081L377.545,717.36a4.886,4.886,0,0,1-4.742,3.73Z" transform="translate(-284.259 -153.03)" fill="#2f2e41"/>
      <circle id="Ellipse_2" data-name="Ellipse 2" cx="24.561" cy="24.561" r="24.561" transform="translate(32.568 199.694)" fill="#d08754"/>
      <path id="Path_20" data-name="Path 20" d="M365.53,577.467a20.11,20.11,0,0,1-10.857-3.106c-11.9-7.436-25.411-4.481-32.407-2.057a4.88,4.88,0,0,1-4.22-.481,4.811,4.811,0,0,1-2.224-3.552L303.1,454.646c-2.132-19.038,9.336-36.937,27.268-42.56h0q1.011-.317,2.055-.6a39.569,39.569,0,0,1,32.972,5.723,40.2,40.2,0,0,1,17.167,29.353l10.71,114.387a4.807,4.807,0,0,1-1.527,4.007C387.99,568.428,377.092,577.466,365.53,577.467Z" transform="translate(-284.259 -153.03)" fill="#6c63ff"/>
      <path id="Path_21" data-name="Path 21" d="M326.789,479.012l-28.7-3.156a5.717,5.717,0,0,1-4.905-7.134l7.306-27.846a15.878,15.878,0,1,1,31.556,3.563l1.085,28.675a5.718,5.718,0,0,1-6.338,5.9Z" transform="translate(-284.259 -153.03)" fill="#6c63ff"/>
      <path id="Path_22" data-name="Path 22" d="M393.156,566.554a10.743,10.743,0,0,0-.406-16.468l-7.073-92.842-20.789,4.68,12.2,90.414a10.8,10.8,0,0,0,16.064,14.216Z" transform="translate(-284.259 -153.03)" fill="#d08754"/>
      <path id="Path_23" data-name="Path 23" d="M356.919,473.176a5.711,5.711,0,0,1-1.818-4.4l1.085-28.675a15.878,15.878,0,1,1,31.556-3.563l7.306,27.846a5.717,5.717,0,0,1-4.905,7.134l-28.7,3.156A5.711,5.711,0,0,1,356.919,473.176Z" transform="translate(-284.259 -153.03)" fill="#6c63ff"/>
      <path id="Path_24" data-name="Path 24" d="M340.927,401.771a5.683,5.683,0,0,1-1.3-.151l-.125-.03c-21.595-3.3-26.367-15.811-27.414-21.035-1.084-5.408.15-10.628,2.94-12.656-1.521-4.8-1.277-9.061.727-12.662,3.5-6.28,11.081-8.4,12.1-8.664,6.058-4.469,13.306-1.486,14.625-.881,11.719-4.335,16.2-.727,17.008.079,5.238.941,8.431,2.964,9.491,6.016,1.991,5.731-4.305,12.86-4.574,13.161l-.14.156-9.38.447a6.358,6.358,0,0,0-5.981,7.317h0a29.607,29.607,0,0,0,.96,3.355c1.6,5.006,2.8,9.283,1.254,10.909a2.51,2.51,0,0,1-2.625.455c-1.467-.392-2.462-.31-2.959.245-.77.859-.535,3.035.662,6.125a5.739,5.739,0,0,1-1.046,5.847,5.568,5.568,0,0,1-4.226,1.967Z" transform="translate(-284.259 -153.03)" fill="#211e12"/>
      <path id="Path_25" data-name="Path 25" d="M425.259,746.97h-140a1,1,0,0,1,0-2h140a1,1,0,0,1,0,2Z" transform="translate(-284.259 -153.03)" fill="#ccc"/>
      <path id="Path_26" data-name="Path 26" d="M913.259,746.97h-140a1,1,0,0,1,0-2h140a1,1,0,0,1,0,2Z" transform="translate(-284.259 -153.03)" fill="#ccc"/>
      <path id="Path_27" data-name="Path 27" d="M712.971,577.03h-242a35.04,35.04,0,0,1-35-35v-354a35.04,35.04,0,0,1,35-35h242a35.04,35.04,0,0,1,35,35v354a35.04,35.04,0,0,1-35,35Z" transform="translate(-284.259 -153.03)" fill="#fff"/>
      <path id="Path_28" data-name="Path 28" d="M674.972,434.059h-166c-16.957-.082-17.027-25.911,0-26h166C691.917,408.138,692.008,433.97,674.972,434.059Z" transform="translate(-284.259 -153.03)" fill="#ccc"/>
      <path id="Path_29" data-name="Path 29" d="M674.972,226h-166c-16.957-.082-17.027-25.911,0-26h166C691.917,200.079,692.008,225.911,674.972,226Z" transform="translate(-284.259 -153.03)" fill="#ccc"/>
      <path id="Path_30" data-name="Path 30" d="M674.972,482.059h-166c-16.957-.082-17.027-25.911,0-26h166C691.917,456.138,692.008,481.97,674.972,482.059Z" transform="translate(-284.259 -153.03)" fill="#ccc"/>
      <path id="Path_31" data-name="Path 31" d="M674.972,530.059h-166c-16.957-.082-17.027-25.911,0-26h166C691.917,504.138,692.008,529.97,674.972,530.059Z" transform="translate(-284.259 -153.03)" fill="#ccc"/>
      <path id="Path_32" data-name="Path 32" d="M671.971,376.859h-160a16.519,16.519,0,0,1-16.5-16.5v-89.6a16.519,16.519,0,0,1,16.5-16.5h160a16.519,16.519,0,0,1,16.5,16.5v89.6a16.519,16.519,0,0,1-16.5,16.5Z" transform="translate(-284.259 -153.03)" fill="#6c63ff"/>
      <path id="Path_33" data-name="Path 33" d="M712.971,577.03h-242a35.04,35.04,0,0,1-35-35v-354a35.04,35.04,0,0,1,35-35h242a35.04,35.04,0,0,1,35,35v354a35.04,35.04,0,0,1-35,35Zm-242-418a29.033,29.033,0,0,0-29,29v354a29.033,29.033,0,0,0,29,29h242a29.033,29.033,0,0,0,29-29v-354a29.033,29.033,0,0,0-29-29Z" transform="translate(-284.259 -153.03)" fill="#e6e6e6"/>
    </g>
  </g>
</svg>
